<svg xmlns="http://www.w3.org/2000/svg" viewBox="0 0 512 105.8">
	<style type="text/css">
		.atomlogo{fill:#292D33;}
		.darkboxlogo{fill:#000;}
		.syntax-bg{fill:#412B6B;}
		.syntax-text{fill:#fff;}
	</style>
	<path class="atomlogo" d="M0 21.3c0-0.2 0-0.4 0.2-0.7L9.2 1c0.3-0.7 0.8-1.1 1.6-1.1h0.1c0.8 0 1.3 0.4 1.6 1.1l9 19.7c0.1 0.2 0.2 0.4 0.2 0.6 0 0.7-0.5 1.2-1.2 1.2l0 0c-0.6 0-1-0.4-1.2-0.9l-2.3-5.1H4.7l-2.3 5.2c-0.2 0.5-0.6 0.9-1.2 0.9C0.5 22.5 0 22 0 21.3 0 21.3 0 21.3 0 21.3L0 21.3zM5.7 14.2h10.2L10.8 2.8C10.8 2.8 5.7 14.2 5.7 14.2zM47.1 21.2c0 0.7 0.6 1.3 1.3 1.3s1.3-0.6 1.3-1.3V2.4h6.4c0.6 0 1.2-0.5 1.2-1.1 0-0.6-0.5-1.2-1.2-1.2H40.6c-0.6 0-1.2 0.5-1.2 1.2 0 0.6 0.5 1.1 1.2 1.1h6.4C47.1 2.4 47.1 21.2 47.1 21.2zM88.1 22.7c-6.8 0-11.3-5.3-11.3-11.4v-0.1c0-6.1 4.6-11.5 11.4-11.5 6.8 0 11.3 5.3 11.3 11.4v0.1C99.4 17.3 94.8 22.7 88.1 22.7zM88.1 20.4c5.1 0 8.7-4.1 8.7-9.1v-0.1c0-5-3.7-9.2-8.8-9.2s-8.7 4.1-8.7 9.1v0.1C79.4 16.3 83.1 20.4 88.1 20.4zM122.3 21.2c0 0.7 0.5 1.2 1.2 1.2 0.7 0 1.2-0.5 1.2-1.2 0 0 0 0 0 0V4.7l7.1 10.4c0.3 0.4 0.6 0.6 1.1 0.6s0.8-0.2 1-0.6L141 4.6v16.6c0 0.7 0.6 1.3 1.3 1.3 0.7 0 1.2-0.6 1.2-1.3v-20c0-0.7-0.6-1.2-1.2-1.2H142c-0.5 0-0.9 0.3-1.2 0.7l-7.9 11.9 -7.9-11.9c-0.3-0.4-0.6-0.7-1.2-0.7h-0.3c-0.7 0-1.2 0.6-1.2 1.2C122.3 1.2 122.3 21.2 122.3 21.2z"/>
	<path class="darkboxlogo" d="M0 104.9V41.2h23.7c19.9 0 33.4 13.2 33.4 31.9s-13.5 31.8-33.4 31.8H0zM45.6 73.1c0-12.3-7.6-22.1-21.9-22.1H11.2v44.1h12.5C37.6 95.1 45.6 85.2 45.6 73.1zM100.6 104.9v-6.3c-3.5 4.6-8.9 7.5-14.8 7.5 -11.9 0-20.5-9-20.5-24.2 0-14.9 8.6-24.3 20.5-24.3 5.7 0 11.1 2.7 14.7 7.6v-6.4h10.1v46.2H100.6zM100.6 91.1V72.8c-2.3-3.4-7.2-6.2-11.9-6.2 -7.9 0-13 6.3-13 15.3 0 8.9 5.1 15.3 13 15.3C93.4 97.2 98.3 94.5 100.6 91.1zM123.9 104.9V58.8h10v6.8c3.4-4.4 9-7.8 15-7.8v9.9c-0.9-0.2-1.9-0.3-3.2-0.3 -4.2 0-9.8 2.9-11.9 6.1v31.4H123.9zM189.2 104.9l-14.1-19 -6.4 6.6v12.4h-10V41.2h10V81L189 58.8h12.4l-19.2 20.9 19.6 25.2H189.2zM211.1 104.9V41.2h10v24c3.6-4.9 9-7.6 14.8-7.6 11.9 0 20.5 9.4 20.5 24.3 0 15.2-8.7 24.2-20.5 24.2 -6 0-11.3-2.9-14.8-7.5v6.3H211.1zM232.9 97.2c8 0 13.1-6.3 13.1-15.3s-5.1-15.4-13.1-15.4c-4.7 0-9.7 2.9-11.9 6.3v18.3C223.3 94.5 228.3 97.2 232.9 97.2zM263.2 81.8c0-13.2 9.1-24.2 23.7-24.2 14.8 0 23.8 11 23.8 24.2 0 13.3-9 24.3-23.8 24.3C272.3 106.1 263.2 95.1 263.2 81.8zM300.3 81.8c0-8.1-4.8-15.3-13.4-15.3 -8.5 0-13.3 7.2-13.3 15.3 0 8.2 4.8 15.4 13.3 15.4C295.5 97.2 300.3 90 300.3 81.8zM348.9 104.9l-11.9-17 -12 17h-11.2l16.9-23.7 -16-22.5H326l11 15.7 10.9-15.7h11.3l-16 22.5 17 23.7H348.9z"/>
	<path class="syntax-bg" d="M505.7 104.9H377.5c-3.5 0-6.3-2.8-6.3-6.3V65.2c0-3.6 2.9-6.5 6.5-6.5h128c3.5 0 6.3 2.8 6.3 6.3v33.5C512 102.1 509.2 104.9 505.7 104.9z"/>
	<path class="syntax-text" d="M383.2 88.4l1.9-3c1.3 1.4 4 2.7 6.4 2.7 2.5 0 3.7-1.1 3.7-2.6 0-3.7-11.5-1.1-11.5-8.3 0-3.1 2.7-5.8 7.5-5.8 3.2 0 5.7 1.1 7.4 2.7l-1.7 2.9c-1.1-1.3-3.3-2.3-5.6-2.3 -2.2 0-3.5 1-3.5 2.3 0 3.4 11.5 0.9 11.5 8.4 0 3.3-2.8 5.9-7.9 5.9C388.1 91.4 385.2 90.4 383.2 88.4zM403.2 95.8l1.9-3c1.5 1.9 4 2.5 6.2 2.4 2.8-0.1 4.9-2.5 4.9-5.3l0-2.2c-1.4 1.5-3.7 3-6.7 3 -4.1 0-6.1-2.1-6.1-6V71.9h4.1v11.3c0 2.9 1.5 3.9 3.8 3.9 2.1 0 3.9-1.2 4.9-2.5V71.9h4.1v18c0 5.7-4 8.6-9.5 8.6C407.6 98.6 405.3 97.7 403.2 95.8zM438.5 90.9V79c0-2.9-1.5-3.9-3.8-3.9 -2.1 0-3.9 1.3-4.9 2.6v13.2h-4.1v-19h4.1v2.6c1.3-1.5 3.7-3.1 6.7-3.1 4.1 0 6.1 2.2 6.1 6.1v13.4H438.5zM448.8 86.5v-11h-3.1v-3.6h3.1v-5.2h4.1v5.2h3.9v3.6h-3.9v9.9c0 1.3 0.6 2.2 1.8 2.2 0.8 0 1.5-0.3 1.8-0.7l1 3.1c-0.7 0.7-2 1.2-3.9 1.2C450.5 91.4 448.8 89.6 448.8 86.5zM473.9 90.9v-2.6c-1.5 1.9-3.7 3.1-6.1 3.1 -4.9 0-8.4-3.7-8.4-9.9 0-6.1 3.5-10 8.4-10 2.4 0 4.6 1.1 6.1 3.1v-2.6h4.2v19H473.9zM473.9 85.2v-7.5c-0.9-1.4-2.9-2.6-4.9-2.6 -3.3 0-5.3 2.6-5.3 6.3 0 3.7 2.1 6.3 5.3 6.3C470.9 87.7 472.9 86.6 473.9 85.2zM495.4 90.9l-4.9-7 -5 7h-4.6l7-9.7 -6.6-9.2h4.6l4.5 6.4 4.5-6.4h4.6l-6.6 9.2 7 9.7H495.4z"/>
</svg>
